<?xml version="1.0"?>
<svg xmlns="http://www.w3.org/2000/svg" xmlns:xlink="http://www.w3.org/1999/xlink" xmlns:svgjs="http://svgjs.com/svgjs" version="1.1" width="512" height="512" x="0" y="0" viewBox="0 0 477.867 477.867" style="enable-background:new 0 0 512 512" xml:space="preserve" class=""><g>
<g xmlns="http://www.w3.org/2000/svg">
	<g>
		<path d="M460.8,221.867H185.31c-9.255-36.364-46.237-58.34-82.602-49.085c-24.116,6.138-42.947,24.969-49.085,49.085H17.067    C7.641,221.867,0,229.508,0,238.934S7.641,256,17.067,256h36.557c9.255,36.364,46.237,58.34,82.602,49.085    c24.116-6.138,42.947-24.969,49.085-49.085H460.8c9.426,0,17.067-7.641,17.067-17.067S470.226,221.867,460.8,221.867z" fill="#ffffff" data-original="#000000" style=""/>
	</g>
</g>
<g xmlns="http://www.w3.org/2000/svg">
	<g>
		<path d="M460.8,51.2h-53.623c-9.255-36.364-46.237-58.34-82.602-49.085C300.459,8.253,281.628,27.084,275.49,51.2H17.067    C7.641,51.2,0,58.841,0,68.267s7.641,17.067,17.067,17.067H275.49c9.255,36.364,46.237,58.34,82.602,49.085    c24.116-6.138,42.947-24.969,49.085-49.085H460.8c9.426,0,17.067-7.641,17.067-17.067S470.226,51.2,460.8,51.2z" fill="#ffffff" data-original="#000000" style=""/>
	</g>
</g>
<g xmlns="http://www.w3.org/2000/svg">
	<g>
		<path d="M460.8,392.534h-87.757c-9.255-36.364-46.237-58.34-82.602-49.085c-24.116,6.138-42.947,24.969-49.085,49.085H17.067    C7.641,392.534,0,400.175,0,409.6s7.641,17.067,17.067,17.067h224.29c9.255,36.364,46.237,58.34,82.602,49.085    c24.116-6.138,42.947-24.969,49.085-49.085H460.8c9.426,0,17.067-7.641,17.067-17.067S470.226,392.534,460.8,392.534z" fill="#ffffff" data-original="#000000" style=""/>
	</g>
</g>
<g xmlns="http://www.w3.org/2000/svg">
</g>
<g xmlns="http://www.w3.org/2000/svg">
</g>
<g xmlns="http://www.w3.org/2000/svg">
</g>
<g xmlns="http://www.w3.org/2000/svg">
</g>
<g xmlns="http://www.w3.org/2000/svg">
</g>
<g xmlns="http://www.w3.org/2000/svg">
</g>
<g xmlns="http://www.w3.org/2000/svg">
</g>
<g xmlns="http://www.w3.org/2000/svg">
</g>
<g xmlns="http://www.w3.org/2000/svg">
</g>
<g xmlns="http://www.w3.org/2000/svg">
</g>
<g xmlns="http://www.w3.org/2000/svg">
</g>
<g xmlns="http://www.w3.org/2000/svg">
</g>
<g xmlns="http://www.w3.org/2000/svg">
</g>
<g xmlns="http://www.w3.org/2000/svg">
</g>
<g xmlns="http://www.w3.org/2000/svg">
</g>
</g></svg>
